<mxfile host="drawio-plugin" modified="2023-03-09T11:07:47.787Z" agent="5.0 (Macintosh; Intel Mac OS X 10_15_7) AppleWebKit/537.36 (KHTML, like Gecko) Chrome/104.0.5112.102 Safari/537.36" etag="uiW6RE7cFZcLx4cNccFS" version="20.5.3" type="embed"><diagram id="23iRSUPoRavnBvh4doch" name="nacos"><mxGraphModel dx="800" dy="481" grid="1" gridSize="10" guides="1" tooltips="1" connect="1" arrows="1" fold="1" page="1" pageScale="1" pageWidth="827" pageHeight="1169" math="0" shadow="0"><root><mxCell id="0"/><mxCell id="1" parent="0"/><mxCell id="FU1pbFiwDOGhBiErPEIT-1" value="请求" style="rounded=0;whiteSpace=wrap;html=1;fontFamily=Comic Sans MS;align=center;fontStyle=1;sketch=1;" parent="1" vertex="1"><mxGeometry x="294" y="210" width="120" height="60" as="geometry"/></mxCell><mxCell id="FU1pbFiwDOGhBiErPEIT-2" value="" style="rounded=0;whiteSpace=wrap;html=1;fontFamily=Comic Sans MS;align=center;fontStyle=1;sketch=1;" parent="1" vertex="1"><mxGeometry x="190" y="350" width="320" height="80" as="geometry"/></mxCell><mxCell id="FU1pbFiwDOGhBiErPEIT-3" value="Nginx01" style="rounded=0;whiteSpace=wrap;html=1;fontFamily=Comic Sans MS;align=center;fontStyle=1;sketch=1;" parent="1" vertex="1"><mxGeometry x="210" y="370" width="90" height="50" as="geometry"/></mxCell><mxCell id="FU1pbFiwDOGhBiErPEIT-4" value="Nginx02" style="rounded=0;whiteSpace=wrap;html=1;fontFamily=Comic Sans MS;align=center;fontStyle=1;sketch=1;" parent="1" vertex="1"><mxGeometry x="400" y="370" width="90" height="50" as="geometry"/></mxCell><mxCell id="FU1pbFiwDOGhBiErPEIT-6" style="edgeStyle=orthogonalEdgeStyle;rounded=0;orthogonalLoop=1;jettySize=auto;html=1;exitX=0.5;exitY=1;exitDx=0;exitDy=0;entryX=0.5;entryY=0;entryDx=0;entryDy=0;fontFamily=Comic Sans MS;sketch=1;" parent="1" source="FU1pbFiwDOGhBiErPEIT-1" target="FU1pbFiwDOGhBiErPEIT-4" edge="1"><mxGeometry relative="1" as="geometry"/></mxCell><mxCell id="FU1pbFiwDOGhBiErPEIT-5" style="edgeStyle=orthogonalEdgeStyle;rounded=0;orthogonalLoop=1;jettySize=auto;html=1;exitX=0.5;exitY=1;exitDx=0;exitDy=0;entryX=0.5;entryY=0;entryDx=0;entryDy=0;fontFamily=Comic Sans MS;sketch=1;" parent="1" source="FU1pbFiwDOGhBiErPEIT-1" target="FU1pbFiwDOGhBiErPEIT-3" edge="1"><mxGeometry relative="1" as="geometry"/></mxCell><mxCell id="FU1pbFiwDOGhBiErPEIT-16" style="edgeStyle=orthogonalEdgeStyle;rounded=0;sketch=1;orthogonalLoop=1;jettySize=auto;html=1;exitX=0.5;exitY=1;exitDx=0;exitDy=0;entryX=0.5;entryY=0;entryDx=0;entryDy=0;fontFamily=Comic Sans MS;" parent="1" source="FU1pbFiwDOGhBiErPEIT-7" target="FU1pbFiwDOGhBiErPEIT-15" edge="1"><mxGeometry relative="1" as="geometry"/></mxCell><mxCell id="FU1pbFiwDOGhBiErPEIT-7" value="" style="rounded=1;whiteSpace=wrap;html=1;sketch=1;fontFamily=Comic Sans MS;align=center;" parent="1" vertex="1"><mxGeometry x="90" y="525" width="530" height="95" as="geometry"/></mxCell><mxCell id="FU1pbFiwDOGhBiErPEIT-8" value="Nacos01" style="rounded=0;whiteSpace=wrap;html=1;fontFamily=Comic Sans MS;align=center;fontStyle=1;sketch=1;" parent="1" vertex="1"><mxGeometry x="140" y="547.5" width="90" height="50" as="geometry"/></mxCell><mxCell id="FU1pbFiwDOGhBiErPEIT-9" value="Nacos02" style="rounded=0;whiteSpace=wrap;html=1;fontFamily=Comic Sans MS;align=center;fontStyle=1;sketch=1;" parent="1" vertex="1"><mxGeometry x="305" y="547.5" width="90" height="50" as="geometry"/></mxCell><mxCell id="FU1pbFiwDOGhBiErPEIT-10" value="Nacos03" style="rounded=0;whiteSpace=wrap;html=1;fontFamily=Comic Sans MS;align=center;fontStyle=1;sketch=1;" parent="1" vertex="1"><mxGeometry x="470" y="547.5" width="90" height="50" as="geometry"/></mxCell><mxCell id="FU1pbFiwDOGhBiErPEIT-13" style="edgeStyle=orthogonalEdgeStyle;rounded=0;sketch=1;orthogonalLoop=1;jettySize=auto;html=1;exitX=0.5;exitY=1;exitDx=0;exitDy=0;fontFamily=Comic Sans MS;entryX=0.5;entryY=0;entryDx=0;entryDy=0;" parent="1" source="FU1pbFiwDOGhBiErPEIT-2" target="FU1pbFiwDOGhBiErPEIT-10" edge="1"><mxGeometry relative="1" as="geometry"><mxPoint x="515" y="550" as="targetPoint"/></mxGeometry></mxCell><mxCell id="FU1pbFiwDOGhBiErPEIT-12" style="edgeStyle=orthogonalEdgeStyle;rounded=0;sketch=1;orthogonalLoop=1;jettySize=auto;html=1;exitX=0.5;exitY=1;exitDx=0;exitDy=0;fontFamily=Comic Sans MS;" parent="1" source="FU1pbFiwDOGhBiErPEIT-2" target="FU1pbFiwDOGhBiErPEIT-9" edge="1"><mxGeometry relative="1" as="geometry"><mxPoint x="380" y="550" as="targetPoint"/></mxGeometry></mxCell><mxCell id="FU1pbFiwDOGhBiErPEIT-11" style="edgeStyle=orthogonalEdgeStyle;rounded=0;sketch=1;orthogonalLoop=1;jettySize=auto;html=1;exitX=0.5;exitY=1;exitDx=0;exitDy=0;entryX=0.5;entryY=0;entryDx=0;entryDy=0;fontFamily=Comic Sans MS;" parent="1" source="FU1pbFiwDOGhBiErPEIT-2" target="FU1pbFiwDOGhBiErPEIT-8" edge="1"><mxGeometry relative="1" as="geometry"/></mxCell><mxCell id="FU1pbFiwDOGhBiErPEIT-15" value="高可用MySQL集群" style="rounded=0;whiteSpace=wrap;html=1;fontFamily=Comic Sans MS;align=center;fontStyle=1;sketch=1;" parent="1" vertex="1"><mxGeometry x="295" y="690" width="120" height="60" as="geometry"/></mxCell><mxCell id="7" style="edgeStyle=orthogonalEdgeStyle;rounded=0;orthogonalLoop=1;jettySize=auto;html=1;exitX=0.5;exitY=1;exitDx=0;exitDy=0;entryX=0.5;entryY=0;entryDx=0;entryDy=0;sketch=1;fontFamily=Comic Sans MS;" edge="1" parent="1" source="2" target="3"><mxGeometry relative="1" as="geometry"/></mxCell><mxCell id="2" value="Nacos Client" style="rounded=1;whiteSpace=wrap;html=1;shadow=0;sketch=1;fontFamily=Comic Sans MS;fillColor=#dae8fc;strokeColor=#6c8ebf;" vertex="1" parent="1"><mxGeometry x="270" y="950" width="120" height="60" as="geometry"/></mxCell><mxCell id="8" style="edgeStyle=orthogonalEdgeStyle;rounded=0;orthogonalLoop=1;jettySize=auto;html=1;exitX=0.25;exitY=1;exitDx=0;exitDy=0;entryX=0.5;entryY=0;entryDx=0;entryDy=0;sketch=1;fontFamily=Comic Sans MS;" edge="1" parent="1" source="3" target="4"><mxGeometry relative="1" as="geometry"/></mxCell><mxCell id="9" style="edgeStyle=orthogonalEdgeStyle;rounded=0;orthogonalLoop=1;jettySize=auto;html=1;exitX=0.5;exitY=1;exitDx=0;exitDy=0;entryX=0.5;entryY=0;entryDx=0;entryDy=0;sketch=1;fontFamily=Comic Sans MS;" edge="1" parent="1" source="3" target="5"><mxGeometry relative="1" as="geometry"/></mxCell><mxCell id="10" style="edgeStyle=orthogonalEdgeStyle;rounded=0;orthogonalLoop=1;jettySize=auto;html=1;exitX=0.75;exitY=1;exitDx=0;exitDy=0;entryX=0.5;entryY=0;entryDx=0;entryDy=0;sketch=1;fontFamily=Comic Sans MS;" edge="1" parent="1" source="3" target="6"><mxGeometry relative="1" as="geometry"/></mxCell><mxCell id="3" value="Nginx" style="rounded=1;whiteSpace=wrap;html=1;shadow=0;sketch=1;fontFamily=Comic Sans MS;fillColor=#dae8fc;strokeColor=#6c8ebf;" vertex="1" parent="1"><mxGeometry x="270" y="1060" width="120" height="60" as="geometry"/></mxCell><mxCell id="12" style="edgeStyle=orthogonalEdgeStyle;rounded=0;orthogonalLoop=1;jettySize=auto;html=1;exitX=0.5;exitY=1;exitDx=0;exitDy=0;sketch=1;fontFamily=Comic Sans MS;" edge="1" parent="1" source="4" target="11"><mxGeometry relative="1" as="geometry"/></mxCell><mxCell id="4" value="Nacos Server1" style="rounded=1;whiteSpace=wrap;html=1;shadow=0;sketch=1;fontFamily=Comic Sans MS;fillColor=#dae8fc;strokeColor=#6c8ebf;" vertex="1" parent="1"><mxGeometry x="100" y="1200" width="120" height="60" as="geometry"/></mxCell><mxCell id="13" style="edgeStyle=orthogonalEdgeStyle;rounded=0;orthogonalLoop=1;jettySize=auto;html=1;exitX=0.5;exitY=1;exitDx=0;exitDy=0;sketch=1;fontFamily=Comic Sans MS;" edge="1" parent="1" source="5" target="11"><mxGeometry relative="1" as="geometry"/></mxCell><mxCell id="5" value="Nacos Server2" style="rounded=1;whiteSpace=wrap;html=1;shadow=0;sketch=1;fontFamily=Comic Sans MS;fillColor=#dae8fc;strokeColor=#6c8ebf;" vertex="1" parent="1"><mxGeometry x="270" y="1200" width="120" height="60" as="geometry"/></mxCell><mxCell id="14" style="edgeStyle=orthogonalEdgeStyle;rounded=0;orthogonalLoop=1;jettySize=auto;html=1;exitX=0.5;exitY=1;exitDx=0;exitDy=0;entryX=0.5;entryY=0;entryDx=0;entryDy=0;sketch=1;fontFamily=Comic Sans MS;" edge="1" parent="1" source="6" target="11"><mxGeometry relative="1" as="geometry"/></mxCell><mxCell id="6" value="Nacos Server3" style="rounded=1;whiteSpace=wrap;html=1;shadow=0;sketch=1;fontFamily=Comic Sans MS;fillColor=#dae8fc;strokeColor=#6c8ebf;" vertex="1" parent="1"><mxGeometry x="450" y="1200" width="120" height="60" as="geometry"/></mxCell><mxCell id="11" value="&lt;font face=&quot;Comic Sans MS&quot;&gt;高可用MySQL&lt;/font&gt;" style="rounded=1;whiteSpace=wrap;html=1;shadow=0;sketch=1;fillColor=#dae8fc;strokeColor=#6c8ebf;" vertex="1" parent="1"><mxGeometry x="270" y="1320" width="120" height="60" as="geometry"/></mxCell><mxCell id="15" value="8088" style="text;html=1;align=center;verticalAlign=middle;resizable=0;points=[];autosize=1;strokeColor=none;fillColor=none;fontFamily=Comic Sans MS;" vertex="1" parent="1"><mxGeometry x="385" y="1075" width="50" height="30" as="geometry"/></mxCell><mxCell id="16" value="9002" style="text;html=1;align=center;verticalAlign=middle;resizable=0;points=[];autosize=1;strokeColor=none;fillColor=none;fontFamily=Comic Sans MS;" vertex="1" parent="1"><mxGeometry x="385" y="965" width="50" height="30" as="geometry"/></mxCell><mxCell id="17" value="3333" style="text;html=1;align=center;verticalAlign=middle;resizable=0;points=[];autosize=1;strokeColor=none;fillColor=none;fontFamily=Comic Sans MS;shadow=0;sketch=1;" vertex="1" parent="1"><mxGeometry x="135" y="1230" width="50" height="30" as="geometry"/></mxCell><mxCell id="18" value="4444" style="text;html=1;align=center;verticalAlign=middle;resizable=0;points=[];autosize=1;strokeColor=none;fillColor=none;fontFamily=Comic Sans MS;shadow=0;sketch=1;" vertex="1" parent="1"><mxGeometry x="305" y="1230" width="50" height="30" as="geometry"/></mxCell><mxCell id="19" value="5555" style="text;html=1;align=center;verticalAlign=middle;resizable=0;points=[];autosize=1;strokeColor=none;fillColor=none;fontFamily=Comic Sans MS;shadow=0;sketch=1;" vertex="1" parent="1"><mxGeometry x="485" y="1230" width="50" height="30" as="geometry"/></mxCell></root></mxGraphModel></diagram></mxfile>